Coordinates
version=1
nRows=7
nColumns=32
inDegrees=yes

Units are S.I. units (second, meters, Newtons, ...)
If the header above contains a line with 'inDegrees', this indicates whether rotational values are in degrees (yes) or radians (no).

endheader
time	pelvis_tilt	pelvis_list	pelvis_rotation	pelvis_tx	pelvis_ty	pelvis_tz	hip_flexion_r	hip_adduction_r	hip_rotation_r	knee_angle_r	knee_adduction_r	med_cond_adduction_r	lat_cond_adduction_r	patella_r_constrained_knee_angle	ankle_angle_r	subtalar_angle_r	mtp_angle_r	hip_flexion_l	hip_adduction_l	hip_rotation_l	knee_angle_l	knee_adduction_l	med_cond_adduction_l	lat_cond_adduction_l	patella_l_constrained_knee_angle	ankle_angle_l	subtalar_angle_l	mtp_angle_l	lumbar_extension	lumbar_bending	lumbar_rotation
      0.45416667	      2.77199526	     -0.70624998	     89.81344600	      0.43534365	      1.10226567	     -1.34363387	    -29.84566016	     -8.57692827	    -39.95832747	    -37.95836588	      0.00000000	      0.00000000	     -0.00000000	     -0.66249846	    -39.89399345	    -19.84042039	     -0.00000000	     13.12327347	     -1.88418127	    -12.50969948	     -7.91661256	      0.00000000	     -0.00000000	      0.00000000	     -0.13817095	     -1.99906710	     19.55425002	      0.00000000	      0.00000000	     -0.00000000	     -0.00000000
      0.45833333	      2.78649499	     -0.68042396	     90.50425440	      0.43395976	      1.09902935	     -1.35930915	    -29.86499619	     -8.59169304	    -39.95712476	    -39.44514013	     -0.00000000	      0.00000000	     -0.00000000	     -0.68844757	    -39.89009596	    -19.85443202	     -0.00000000	     12.70737505	     -1.58664216	    -11.47874774	     -8.13060632	     -0.00000000	      0.00000000	     -0.00000000	     -0.14190585	     -2.40562264	     19.51528594	      0.00000000	      0.00000000	     -0.00000000	     -0.00000000
      0.46250000	      2.73556228	     -0.61284568	     91.17259255	      0.43253299	      1.09578274	     -1.37480680	    -29.87970389	     -8.68670533	    -39.95578256	    -41.02685581	      0.00000000	     -0.00000000	      0.00000000	     -0.71605372	    -39.88573235	    -19.86486762	     -0.00000000	     12.23295338	     -1.24549691	    -10.33698086	     -8.34857648	      0.00000000	     -0.00000000	      0.00000000	     -0.14571015	     -3.11097325	     19.46671859	     -0.00000000	     -0.00000000	     -0.00000000	     -0.00000000
      0.46666667	      2.61347166	     -0.51635887	     91.81008559	      0.43113910	      1.09254710	     -1.39030557	    -29.89121177	     -8.86191232	    -39.95442143	    -42.62434279	     -0.00000000	      0.00000000	     -0.00000000	     -0.74393512	    -39.88072221	    -19.87333935	      0.00000000	     11.71267167	     -0.85004237	     -9.28904024	     -8.63524184	     -0.00000000	     -0.00000000	      0.00000000	     -0.15071340	     -4.26754211	     19.38723576	      0.00000000	     -0.00000000	     -0.00000000	     -0.00000000
      0.47083333	      2.54639761	     -0.38695042	     92.51448173	      0.42968580	      1.08918548	     -1.40561253	    -29.90030537	     -8.94643629	    -39.95291084	    -44.27900484	      0.00000000	      0.00000000	     -0.00000000	     -0.77281442	    -39.87521282	    -19.88027884	      0.00000000	     11.14774540	     -0.51176649	     -7.98274453	     -8.95318293	      0.00000000	      0.00000000	     -0.00000000	     -0.15626252	     -4.80938481	     19.21927454	     -0.00000000	      0.00000000	     -0.00000000	     -0.00000000
      0.47500000	      2.52486822	     -0.23598060	     93.19346737	      0.42815544	      1.08567310	     -1.42094644	    -29.90777602	     -9.01265263	    -39.95102536	    -45.91085018	      0.00000000	      0.00000000	     -0.00000000	     -0.80129550	    -39.86738515	    -19.88643015	      0.00000000	     10.54360254	     -0.20096787	     -6.80200075	     -9.40300535	     -0.00000000	      0.00000000	     -0.00000000	     -0.16411340	     -4.92253978	     18.84470288	      0.00000000	      0.00000000	     -0.00000000	     -0.00000000
      0.47916667	      2.39048872	     -0.03107176	     93.86839402	      0.42635440	      1.08232422	     -1.43591878	    -29.91364727	     -9.21515831	    -39.94929661	    -47.61600599	      0.00000000	     -0.00000000	      0.00000000	     -0.83105608	    -39.85882074	    -19.89079925	      0.00000000	      9.80486041	      0.31535817	     -5.52838334	     -9.90051772	      0.00000000	      0.00000000	      0.00000000	     -0.17279663	     -4.34251882	     18.17844522	     -0.00000000	      0.00000000	      0.00000000	     -0.00000000
